# xmcd
#
# Track frame offsets: 
#        150
#        15662
#        34855
#        50167
#        62232
#        84132
#        100572
#        121380
#        134735
#        148612
#
# Disc length: 2168 seconds
#
# Revision: 3
# Processed by: cddbd v1.5.1PL0 Copyright (c) Steve Scherf et al.
# Submitted via: ExactAudioCopy v0.95a5
#
DISCID=8808760a
DTITLE=David Frizzell - Best Of The Best - The Legacy Continues...
DYEAR=1999
DGENRE=Country
TTITLE0=You're The Reason God Made Oklahoma
TTITLE1=I'm Gonna Hire A Wino To Decorate Our Home
TTITLE2=Saginaw, Michigan
TTITLE3=A Texas State Of Mind
TTITLE4=Red River Valley
TTITLE5=I Just Came Here To Dance
TTITLE6=I'm Thinking Tonight Of My Blue Eyes
TTITLE7=Another Honky-Tonk Night On Broadway
TTITLE8=Sunny Side Of The Mountain
TTITLE9=Lost My Baby Blues
EXTD=
EXTT0=
EXTT1=
EXTT2=
EXTT3=
EXTT4=
EXTT5=
EXTT6=
EXTT7=
EXTT8=
EXTT9=
PLAYORDER=
